0
SECTION
2
HEADER
9
$INSUNITS
70
4
9
$ACADVER
1
AC1014
9
$HANDSEED
5
FFFF
0
ENDSEC
0
SECTION
2
TABLES
0
TABLE
2
VPORT
5
8
100
AcDbSymbolTable
0
ENDTAB
0
TABLE
2
LTYPE
5
5
100
AcDbSymbolTable
0
LTYPE
5
14
100
AcDbSymbolTableRecord
100
AcDbLinetypeTableRecord
2
BYBLOCK
70
0
0
LTYPE
5
15
100
AcDbSymbolTableRecord
100
AcDbLinetypeTableRecord
2
BYLAYER
70
0
0
ENDTAB
0
TABLE
2
LAYER
5
2
100
AcDbSymbolTable
70
2
0
LAYER
5
50
100
AcDbSymbolTableRecord
100
AcDbLayerTableRecord
2
0
70
0
6
CONTINUOUS
0
ENDTAB
0
TABLE
2
STYLE
5
3
100
AcDbSymbolTable
70
1
0
STYLE
5
11
100
AcDbSymbolTableRecord
100
AcDbTextStyleTableRecord
2
STANDARD
70
0
0
ENDTAB
0
TABLE
2
VIEW
5
6
100
AcDbSymbolTable
70
0
0
ENDTAB
0
TABLE
2
UCS
5
7
100
AcDbSymbolTable
70
0
0
ENDTAB
0
TABLE
2
APPID
5
9
100
AcDbSymbolTable
70
2
0
APPID
5
12
100
AcDbSymbolTableRecord
100
AcDbRegAppTableRecord
2
ACAD
70
0
0
ENDTAB
0
TABLE
2
DIMSTYLE
5
A
100
AcDbSymbolTable
70
1
0
ENDTAB
0
TABLE
2
BLOCK_RECORD
5
1
100
AcDbSymbolTable
70
1
0
BLOCK_RECORD
5
1F
100
AcDbSymbolTableRecord
100
AcDbBlockTableRecord
2
*MODEL_SPACE
0
BLOCK_RECORD
5
1B
100
AcDbSymbolTableRecord
100
AcDbBlockTableRecord
2
*PAPER_SPACE
0
ENDTAB
0
ENDSEC
0
SECTION
2
BLOCKS
0
BLOCK
5
20
100
AcDbEntity
100
AcDbBlockBegin
2
*MODEL_SPACE
0
ENDBLK
5
21
100
AcDbEntity
100
AcDbBlockEnd
0
BLOCK
5
1C
100
AcDbEntity
100
AcDbBlockBegin
2
*PAPER_SPACE
0
ENDBLK
5
1D
100
AcDbEntity
100
AcDbBlockEnd
0
ENDSEC
0
SECTION
2
ENTITIES
0
LWPOLYLINE
5
100
100
AcDbEntity
8
0
100
AcDbPolyline
90
21
70
1
43
0.0
10
191.761482033791
20
-1565.9254206370401
10
311.67636838348585
20
-1423.0164240242602
42
-0.22169466264295315
10
326.99725724586608
20
-1415.87217621799
10
485.17583957687208
20
-1415.8721762179903
42
-0.41421356237309503
10
497.17583957687202
20
-1427.8721762179903
10
497.17583957687197
20
-1693.8719945288403
42
-0.41421356237309503
10
485.17583957687208
20
-1705.8719945288403
10
442.17583957687202
20
-1705.8719945288403
42
-0.41421356237309503
10
437.17583957687202
20
-1700.8719945288403
10
437.17583957687214
20
-1697.8719945288401
42
0.41421356237309503
10
425.17583957687208
20
-1685.8719945288403
10
319.17583957687202
20
-1685.8719945288403
42
0.41421356237309503
10
307.17583957687202
20
-1697.8719945288401
10
307.17583957687202
20
-1700.8719945288403
42
-0.41421356237309503
10
302.17583957687202
20
-1705.8719945288403
10
258.67421263863304
20
-1705.871994528841
42
-0.21894366543798185
10
239.69279757950002
20
-1697.14177886524
10
195.00000000000045
20
-1645.0001816891497
42
-0.17903345403185625
10
187.17583957687199
20
-1623.8494620518302
10
187.17583957687194
20
-1582.1584203899201
42
-0.11717450619253901
10
190.38235271173602
20
-1568.6636413399401
0
LWPOLYLINE
5
101
100
AcDbEntity
8
0
100
AcDbPolyline
90
5
70
1
43
0.0
10
202.59256602365323
20
-1638.4922679545898
42
-0.036242283916847896
10
200.65719838357745
20
-1635.8719945288383
10
197.44113115625504
20
-1638.6286235808302
10
237.37762793444702
20
-1685.2212031553802
10
240.41465434390801
20
-1682.6180376615603
0
LWPOLYLINE
5
102
100
AcDbEntity
8
0
100
AcDbPolyline
90
4
70
1
43
0.0
10
437.67583957687208
20
-1659.8429713211799
10
437.67583957687208
20
-1671.8429713211799
10
467.67583957687208
20
-1671.8429713211799
10
467.67583957687208
20
-1659.8429713211799
0
LWPOLYLINE
5
103
100
AcDbEntity
8
0
100
AcDbPolyline
90
4
70
1
43
0.0
10
392.67583957687208
20
-1659.8429713211799
10
392.67583957687208
20
-1671.8429713211799
10
422.67583957687208
20
-1671.8429713211799
10
422.67583957687208
20
-1659.8429713211799
0
LWPOLYLINE
5
104
100
AcDbEntity
8
0
100
AcDbPolyline
90
4
70
1
43
0.0
10
347.67583957687202
20
-1659.8429713211799
10
347.67583957687202
20
-1671.8429713211799
10
377.67583957687202
20
-1671.8429713211799
10
377.67583957687202
20
-1659.8429713211799
0
LWPOLYLINE
5
105
100
AcDbEntity
8
0
100
AcDbPolyline
90
4
70
1
43
0.0
10
302.67583957687202
20
-1659.8429713211799
10
302.67583957687202
20
-1671.8429713211799
10
332.67583957687202
20
-1671.8429713211799
10
332.67583957687202
20
-1659.8429713211799
0
LWPOLYLINE
5
106
100
AcDbEntity
8
0
100
AcDbPolyline
90
4
70
1
43
0.0
10
257.67583957687202
20
-1659.8429713211799
10
257.67583957687202
20
-1671.8429713211799
10
287.67583957687202
20
-1671.8429713211799
10
287.67583957687202
20
-1659.8429713211799
0
LWPOLYLINE
5
107
100
AcDbEntity
8
0
100
AcDbPolyline
90
4
70
1
43
0.0
10
197.17583957687199
20
-1622.9510366904601
10
209.17583957687199
20
-1622.9510366904601
10
209.17583957687199
20
-1592.9510366904601
10
197.17583957687199
20
-1592.9510366904601
0
LWPOLYLINE
5
108
100
AcDbEntity
8
0
100
AcDbPolyline
90
4
70
1
43
0.0
10
347.67583957687202
20
-1437.8721762179903
10
377.67583957687202
20
-1437.8721762179903
10
377.67583957687202
20
-1425.87217621799
10
347.67583957687202
20
-1425.87217621799
0
LWPOLYLINE
5
109
100
AcDbEntity
8
0
100
AcDbPolyline
90
4
70
1
43
0.0
10
392.67583957687208
20
-1437.8721762179903
10
422.67583957687208
20
-1437.8721762179903
10
422.67583957687208
20
-1425.87217621799
10
392.67583957687208
20
-1425.87217621799
0
LWPOLYLINE
5
110
100
AcDbEntity
8
0
100
AcDbPolyline
90
4
70
1
43
0.0
10
437.67583957687208
20
-1437.8721762179903
10
467.67583957687208
20
-1437.8721762179903
10
467.67583957687208
20
-1425.87217621799
10
437.67583957687208
20
-1425.87217621799
0
CIRCLE
5
111
100
AcDbEntity
8
0
100
AcDbCircle
10
374.67583957687202
20
-1627.3576468949
30
0
40
1.7500000000000002
0
CIRCLE
5
112
100
AcDbEntity
8
0
100
AcDbCircle
10
358.67583957687202
20
-1627.3576468949
30
0
40
1.7500000000000002
0
CIRCLE
5
113
100
AcDbEntity
8
0
100
AcDbCircle
10
366.67583957687208
20
-1634.3576468949002
30
0
40
1.7500000000000002
0
ENDSEC
0
SECTION
2
OBJECTS
0
DICTIONARY
5
C
100
AcDbDictionary
3
ACAD_GROUP
350
D
3
ACAD_MLINESTYLE
350
17
0
DICTIONARY
5
D
100
AcDbDictionary
0
DICTIONARY
5
1A
330
C
100
AcDbDictionary
0
DICTIONARY
5
17
100
AcDbDictionary
0
ENDSEC
0
EOF
