0
SECTION
2
HEADER
9
$INSUNITS
70
4
9
$ACADVER
1
AC1014
9
$HANDSEED
5
FFFF
0
ENDSEC
0
SECTION
2
TABLES
0
TABLE
2
VPORT
5
8
100
AcDbSymbolTable
0
ENDTAB
0
TABLE
2
LTYPE
5
5
100
AcDbSymbolTable
0
LTYPE
5
14
100
AcDbSymbolTableRecord
100
AcDbLinetypeTableRecord
2
BYBLOCK
70
0
0
LTYPE
5
15
100
AcDbSymbolTableRecord
100
AcDbLinetypeTableRecord
2
BYLAYER
70
0
0
ENDTAB
0
TABLE
2
LAYER
5
2
100
AcDbSymbolTable
70
2
0
LAYER
5
50
100
AcDbSymbolTableRecord
100
AcDbLayerTableRecord
2
0
70
0
6
CONTINUOUS
0
ENDTAB
0
TABLE
2
STYLE
5
3
100
AcDbSymbolTable
70
1
0
STYLE
5
11
100
AcDbSymbolTableRecord
100
AcDbTextStyleTableRecord
2
STANDARD
70
0
0
ENDTAB
0
TABLE
2
VIEW
5
6
100
AcDbSymbolTable
70
0
0
ENDTAB
0
TABLE
2
UCS
5
7
100
AcDbSymbolTable
70
0
0
ENDTAB
0
TABLE
2
APPID
5
9
100
AcDbSymbolTable
70
2
0
APPID
5
12
100
AcDbSymbolTableRecord
100
AcDbRegAppTableRecord
2
ACAD
70
0
0
ENDTAB
0
TABLE
2
DIMSTYLE
5
A
100
AcDbSymbolTable
70
1
0
ENDTAB
0
TABLE
2
BLOCK_RECORD
5
1
100
AcDbSymbolTable
70
1
0
BLOCK_RECORD
5
1F
100
AcDbSymbolTableRecord
100
AcDbBlockTableRecord
2
*MODEL_SPACE
0
BLOCK_RECORD
5
1B
100
AcDbSymbolTableRecord
100
AcDbBlockTableRecord
2
*PAPER_SPACE
0
ENDTAB
0
ENDSEC
0
SECTION
2
BLOCKS
0
BLOCK
5
20
100
AcDbEntity
100
AcDbBlockBegin
2
*MODEL_SPACE
0
ENDBLK
5
21
100
AcDbEntity
100
AcDbBlockEnd
0
BLOCK
5
1C
100
AcDbEntity
100
AcDbBlockBegin
2
*PAPER_SPACE
0
ENDBLK
5
1D
100
AcDbEntity
100
AcDbBlockEnd
0
ENDSEC
0
SECTION
2
ENTITIES
0
LWPOLYLINE
5
100
100
AcDbEntity
8
0
100
AcDbPolyline
90
28
70
1
43
0.0
10
-326.233872058614
20
-1441.99999970198
10
123.76612794138602
20
-1441.99999970198
10
123.76612794138602
20
-1462.5
10
136.266127941386
20
-1462.5
10
136.266127941386
20
-1492.5
10
123.76612794138602
20
-1492.5
10
123.76612794138602
20
-1507.5
10
136.266127941386
20
-1507.5
10
136.266127941386
20
-1537.5
10
123.76612794138602
20
-1537.5
10
123.76612794138602
20
-1552.5
10
136.266127941386
20
-1552.5
10
136.266127941386
20
-1582.5
10
123.76612794138602
20
-1582.5
10
123.76612794138602
20
-1589.395
10
-326.233872058614
20
-1589.395
10
-326.233872058614
20
-1582.5
10
-338.733872058614
20
-1582.5
10
-338.733872058614
20
-1552.5
10
-326.233872058614
20
-1552.5
10
-326.233872058614
20
-1537.5
10
-338.733872058614
20
-1537.5
10
-338.733872058614
20
-1507.5
10
-326.233872058614
20
-1507.5
10
-326.233872058614
20
-1492.5
10
-338.733872058614
20
-1492.5
10
-338.733872058614
20
-1462.5
10
-326.233872058614
20
-1462.5
0
CIRCLE
5
101
100
AcDbEntity
8
0
100
AcDbCircle
10
-97.657270765201616
20
-1492.67759952809
30
0
40
6.0000000000000009
0
CIRCLE
5
102
100
AcDbEntity
8
0
100
AcDbCircle
10
-181.65727076520199
20
-1492.67759952809
30
0
40
5.9999999999999911
0
CIRCLE
5
103
100
AcDbEntity
8
0
100
AcDbCircle
10
-13.657270765201602
20
-1492.67759952809
30
0
40
6.0000000000000009
0
CIRCLE
5
104
100
AcDbEntity
8
0
100
AcDbCircle
10
-265.65727076520102
20
-1492.67759952809
30
0
40
6.0000000000000009
0
CIRCLE
5
105
100
AcDbEntity
8
0
100
AcDbCircle
10
70.342729234798497
20
-1492.67759952809
30
0
40
5.9999999999999796
0
CIRCLE
5
106
100
AcDbEntity
8
0
100
AcDbCircle
10
-301.15182565745602
20
-1571.6292839747302
30
0
40
1.7500000000000102
0
CIRCLE
5
107
100
AcDbEntity
8
0
100
AcDbCircle
10
-315.31591845977198
20
-1571.6292839747302
30
0
40
1.7500000000000102
0
CIRCLE
5
108
100
AcDbEntity
8
0
100
AcDbCircle
10
98.684081540227709
20
-1571.6292839747302
30
0
40
1.7500000000000202
0
CIRCLE
5
109
100
AcDbEntity
8
0
100
AcDbCircle
10
112.848174342544
20
-1571.6292839747302
30
0
40
1.7500000000000402
0
ENDSEC
0
SECTION
2
OBJECTS
0
DICTIONARY
5
C
100
AcDbDictionary
3
ACAD_GROUP
350
D
3
ACAD_MLINESTYLE
350
17
0
DICTIONARY
5
D
100
AcDbDictionary
0
DICTIONARY
5
1A
330
C
100
AcDbDictionary
0
DICTIONARY
5
17
100
AcDbDictionary
0
ENDSEC
0
EOF
